<svg width="41" height="28" viewBox="0 0 41 28" fill="none" xmlns="http://www.w3.org/2000/svg">
<path d="M20.5253 28H20.4844C20.3574 28 7.65175 27.976 4.44616 27.1268C3.58001 26.8991 2.79035 26.4535 2.15623 25.8345C1.52212 25.2155 1.06579 24.4449 0.832947 23.5998C0.256521 20.4272 -0.0218375 17.2099 0.0013359 13.988C-0.0135457 10.7608 0.272345 7.53896 0.855479 4.36226C1.0949 3.51573 1.55334 2.74345 2.18678 2.11953C2.82022 1.49561 3.6074 1.04099 4.47278 0.799315C7.5903 1.78661e-07 19.9457 0 20.47 0H20.513C20.6421 0 33.3805 0.023979 36.5533 0.873251C38.3128 1.33885 39.6872 2.6797 40.1624 4.39623C40.7564 7.5815 41.0371 10.8127 40.9961 14.05C41.0104 17.2733 40.7239 20.4911 40.1399 23.6637C39.904 24.5079 39.4459 25.2772 38.8109 25.8952C38.176 26.5133 37.3864 26.9585 36.5205 27.1867C33.4071 27.992 21.0497 28 20.5253 28ZM16.4287 8.00314L16.4185 19.9929L27.0942 13.998L16.4287 8.00314Z" fill="url(#paint0_linear_63_415)"/>
<defs>
<linearGradient id="paint0_linear_63_415" x1="3.77257" y1="14.2295" x2="39.6147" y2="15.5715" gradientUnits="userSpaceOnUse">
<stop stop-color="#0083C8"/>
<stop offset="1" stop-color="#04C1CE"/>
</linearGradient>
</defs>
</svg>
